<svg xmlns="http://www.w3.org/2000/svg" viewBox="0 0 13.366 10.793" fill="#006347"><path d="M12.793 10.181l-.807-.794c-.964-.794-.847-1.927-.859-2.044-.013-.116-.013-.585.026-.741s-.013-.326-.013-.326c.287-1.172 1.211-.847 1.211-.847.377.039.391-.325.391-.325.26-.13.195-.403.195-.403l-.457-.482c-.182-.481-.702-.599-.702-.599.077-.481-.17-.781-.17-.781-.039.143-.585.719-.625.729-.638.156-.43.261-.833.547s-1.263.638-1.64.43c-.377-.209-3.514-.482-4.867-.482-.401 0-.714.083-.956.199-.222-.17-.508-.537-.719-1.036-.311-.735-.355-1.473-.116-1.974.128-.27.274-.423.435-.455.239-.047.535.161.62.238a.395.395 0 0 0 .536-.581C3.38.396 2.812-.108 2.139.021c-.422.081-.759.381-1.001.892-.339.712-.302 1.667.102 2.621.182.43.472.914.827 1.24-.093.13-.13.226-.13.226-.117.273-.442.885-.325 1.445.117.56-.234.82-.299.885-.066.066-.743.469-.743.469L.01 9.778c-.091.378.417.599.417.599.182-.025.195-.624.195-.624l.443-1.043 1.666-.611s0 .703-.026.833-.091.351-.091.351c.065.455 1.185 1.51 1.185 1.51h.846v-.273c-.065-.3-.495-.156-.495-.156l-.625-.95c.664-.521.937-1.393.937-1.393.312.26 1.809-.222 1.809-.222l.899.091-.26 2.095c-.078.508.039.69.039.69h.403c.287 0 .482.039.482-.261 0-.299-.403-.247-.403-.247l.988-1.952c.938-.573 1.536.26 1.536.26l.053.3c.364.533 2.369 1.9 2.369 1.9h.989v-.3c-.17-.312-.573-.194-.573-.194z"/></svg>