<svg xmlns="http://www.w3.org/2000/svg" viewBox="0 0 100 100" fill="#006347"><path d="M74.1 32.9c-.6-1.5-2.4-2.1-2.4-2.1s-.2-.9-.7-1.7c.1-.1.3-.2.4-.4.2-.5.2-1.1 0-1.6-.7-1.5-1.1-.6-1.8-.6s-.9-1.2-1.6-1c-.2.1-.4.4-.7.4s-.6-.6-1.3-.9c-.9-.3-.9 1.2-1.2 1.2s-.6-.5-1.2-.5c-.7 0-.7 1.7-.7 1.7s-.9-.6-1.2.1c-.1.2 0 .7.2 1.1.5.8 1.4.9 2.3.9h.8c-1.9 1.9-3.7 5.4-5.9 10.1-3.9 8.2-8.7 5.7-15.2 5.7S33.1 35.1 28.4 35.1c-2.5 0-7.6 5.5-4.5 7.9-1.9.9-1.2 5.3.1 7 2.1 2.7 3.9 2.6 3.9 2.6 1 3.8 5 6.8 5 6.8s4.9 8.8 13.1 10.8c.8 1.2 2 2.2 2.8 2.8l-.4 7.1s-1.2.1-1.2 1.8H51l2.3.2 2.8.8s.1-.5-.1-.9l2.7.3s.2-1-1-1.1c-1.2-.1-5.5-.9-5.5-.9l.3-6.7 2.5-3.2c-1.3 0-2.1-.1-2.7-.2-.2 0-.1-.3 0-.2 1.2.1 2.3 0 3.2-.1 9.2-2.3 12.6-9.6 13.5-15 1.1-6.8-1.1-9.7-.8-16.6 1.3.4 3.3-.2 3.3-1.6 0-1.2-.4-2.3-.8-3l3.4-.8z"/></svg>