<svg xmlns="http://www.w3.org/2000/svg" viewBox="0 0 100 100" fill="#006347"><path d="M98.7 36.4c-1.7-.8-1.3-.8-4.9-6.6 0 0 .4-1-.1-3.1 0-.1-.1-.2-.1-.4 1.5-.6 2-2.2 2.8-3.1C97.3 22 94 21 90 23c-.3-.3-1.2-1.4-1.2-1.4-.8-.5-1.7-.6-2.6-.1-1.6 1-4.4 3.5-10.3 3.5s-7.2-2.1-13.8-2.1-11.9 2-20.5 2-19.5-1-22.8-1.2c-1.3-.1-2.4-.1-3.4-.1-6.3 0-9 .9-10.6 3.9-2.5 4.6-3.1 12.2-2.1 14.8 1 2.7 0 15.9 0 15.9s-2 3.3-2 7.5c0 0 2.6.4 3.2-3.4C4.3 59.8 5 39.8 5 39.8h.8c.6 4.9 3.4 8.4.2 16-1.3 3 2 15.5 2 17.4 0 1.3.1 4.2.1 6 .2 1.1.9 1.8 1.8 1.8h3.6c-.6-4.1-2.5-3.2-2.5-5.4s.5-12.8 1.1-16.8c.1-.8.5-1.5 1.1-2.1 0 0 .9-1.1 3.2-2 .2-.1.3.2.1.3-.8.5-1.7 1.1-2.3 1.9-.2 1.3-.2 2.7.4 4.1 1.2 2.7 5.3 10.7 5.9 13.2.4 1.7.9 4 1.1 5.5.2.8.9 1.4 1.7 1.4h4.1c-.4-4-2.9-2.6-3.7-5.8-.7-2.7-2.6-12.5-2-15.4.2-.9 1.3-2.6 2.7-4.4 1.3.5 2.9 1.2 5 1.9 6.8 2.4 18.3-.4 24.1-.9h.4c-.3 4.9-.9 12.1-1.6 13.5-1 2.1-2 3-2 3s-.2 2.9-.2 3.5V80c0 .6.5 1.1 1.1 1.1h3.9c.1-2.4-2.5-3.5-2-4.6s2.1-5.1 2.5-6.8c.2-.9 1.5-1.9 2.4-2.5.1-.1.4-2.4.5-3.8 0-.3.5-.3.5 0v2.8c.1 2.4.1 4.5.2 5.5 1.4 1.3 1.4 6.1 1.3 8.3 0 .6.5 1.2 1.1 1.2h4.3c-.2-2.5-2.2-2.8-2.2-4.6 0-8 .8-8.6 1.9-11.4.2-.6.5-1.5.9-2.5l2.7-9.5c.1-.3.5-.2.4.1l-.6 6c4.8-.4 7.2-3.6 8.1-6 1.1-3 3.4-9.6 4.4-11.1 1.6-2.4 1.6-4.1 4.7-3.1h.1c1.8.7 4.2 1.3 7.1 1.2 0 0 0 1.6 2.1 1.3 2-.3 2.3-.3 2.9-.4.6-.1.5-.9.9-1.8.2-.9 1.1-2.2-.6-3z"/></svg>