<svg xmlns="http://www.w3.org/2000/svg" viewBox="0 0 50 50" fill="#006347"><path d="M35.4 13.1l-3.7-5.3c.1 0 1.9.3 1.9-1V3.1c0-.6-.4-1-1-1H17.4c-.6 0-1 .4-1 1v3.7c0 1.3 1.7 1 1.9 1-2.4 4-6.1 6.6-6.1 12.9v1.4c1.9 1.6 3 2.4 5.3.6 2.7-2.4 5.6-2.4 8.4 0 1.7 1.4 3 1.4 4.7 0 2.6-2.3 5.6-2.1 7.4-.9-.3-.8.4-4.5-2.6-8.7z"/><path d="M32.3 24.7c-2.7 2.4-5.6 2.4-8.4 0-1.7-1.4-3-1.4-4.7 0-2.6 2.3-5.3 2.1-7.1 1v18.1c0 2.3 1.6 4 3.6 4h18.6c2 0 3.6-1.9 3.6-4V25.4c-.3-.3-.6-.4-.9-.7-1.7-1.4-3-1.4-4.7 0z"/></svg>