<svg xmlns="http://www.w3.org/2000/svg" xmlns:xlink="http://www.w3.org/1999/xlink" width="100" height="100"><svg xmlns="http://www.w3.org/2000/svg" viewBox="0 0 100 100" transform="matrix(.69 0 0 .69 15.5 15.5)" fill="#006347"><path d="M36.47 71.43v.015c0 .001.17-.209 0-.015zM5.711 31.676a2.304 2.304 0 0 1-.331-.335c.132.18.451.6.331.335zm36.227 54.719c-.145-.022-.236-.038-.236-.038s.211.095.236.038zM14.911 12.126a.357.357 0 0 0-.122.154c.095-.108.176-.187.224-.229-.023.019-.056.042-.102.075z"/><path d="M93.777 44.443c-2.963-9.235-9.71-8.107-9.71-8.107-1.436-1.255-3.944-2.76-8.306-4.007 0 0-3.758-1.749-17.046 2.552-.052.016-.101.034-.151.051 0 0-7.28.512-10.48-2.175-1.138-.956-4.209-1.635-5.732-1.573 0 0-14.857-12.32-21.52-14.276l-1.981-5.164-.732 3.869-1.279-.004s-2.392-2.507-2.051-3.327c-.499.581-1.376 2.099.313 4.254 0 0-1.863 2.835-3.555 3.043 0 0-.178 1.508-.199 1.825-.021.319-5.741 5.512-5.741 5.512.041.163-1.18 2.533-.269 4.085.219.368.327.573.372.677.556.463 1.738 1.061 3.77.332 0 0 .462-1.348 2.531-1.213l3.181-.601s3.973 1.176 5.709-.948c0 0 6.922 9.031 6.212 13.353 0 0 .052 12.256 3.611 14.035 0 0-.314 2.377.906 6.505 0 0 1.581 3.514 1.279 7.33 0 0 .36 1.833.598 3.074 0 0 .395 7.004-.561 8.595 0 0-2.115 3.805-3.079 4.699-.964.896-.12.207-.12.207s1.9 1.881 5.389-.129c0 0-1.809-3.315.256-3.924 0 0 1.382-.763.716-1.979 0 0-.356-7.985.068-9.194a.436.436 0 0 1 .06-.121c.116-.131.187-.211.232-.266l1.142-10.669c0 .002 2.349 4.546 2.398 6.227 0 0 .306 3.856 1.639 5.462 0 0 4.224 8.748 1.119 11.021 0 0-1.958 1.79-1.2 2.479.311.287.385.403.369.445.877.123 3.967.434 4.079-1.273 0 0-1.97-1.648.259-3.978 0 0-2.548-7.439-1.912-11.075 0 0-1.629-7.34-.695-10.764 4.172-.251 9.561-.762 12.785-1.789 0 0 4.037-.641 6.738-2.012 2.698-1.367 6.827-3.389 9.925 1.398 0 0 3.108 3.772 2.918 6.688-.041.658.157 1.357.484 2.077.246 2.014.476 4.398.36 5.533-.219 2.161-.784 9.557-5.194 12.225 0 0-2.934 2.065-.447 1.939 2.485-.126 3.336 1.548 3.977.261.646-1.287-1.277-2.37.989-4.062 0 0 1.088-.808 1.13-1.443.029-.434 1.208-5.429 2.616-8.578.283.65.472 1.295.499 1.928.155 3.314.735 7.531.014 8.763 0 0-3.504 4.037-3.4 5.529 0 0 3.595.839 4.907.331a1.59 1.59 0 0 0 .091-.164c1.165-2.321-2.09-1.414.273-4.136l.658-1.129s1.585-9.564.931-10.139c-.658-.575.633-1.556.633-1.556s-3.683-9.67-1.624-11.827c0 0 9.008-8.113 4.722-17.423 2.432 1.851 2.299 8.267 1.3 11.289-1.296 3.912.724 10.916.724 10.916.358 3.06 1.101-.606 1.101-.606 2.982-3.681 5.964-9.642 3.001-18.878z"/></svg></svg>