<svg version="1.1" id="Слой_1" xmlns="http://www.w3.org/2000/svg" x="0" y="0" viewBox="0 0 100 51.1" xml:space="preserve"><style>.st0{fill:#006347}</style><path class="st0" d="M36.5 36.7s.1-.2 0 0zM5.7-3.1c-.1-.1-.3-.2-.3-.3.1.2.4.6.3.3zm36.2 54.8h-.2.2zm-27-74.3c-.1 0-.1.1-.1.2l.2-.2c0-.1 0-.1-.1 0z" transform="matrix(.69 0 0 .69 15.5 15.5)"/><path class="st0" d="M93.8 9.7c-3-9.2-9.7-8.1-9.7-8.1-1.4-1.3-3.9-2.8-8.3-4 0 0-3.8-1.7-17 2.6-.1 0-.1 0-.2.1 0 0-7.3.5-10.5-2.2-1.1-1-4.2-1.6-5.7-1.6 0 0-14.9-12.3-21.5-14.3l-2-5.2-.7 3.9h-1.3s-2.4-2.5-2.1-3.3c-.5.6-1.4 2.1.3 4.3 0 0-1.9 2.8-3.6 3 0 0-.2 1.5-.2 1.8 0 .3-5.7 5.5-5.7 5.5 0 .2-1.2 2.5-.3 4.1.2.4.3.6.4.7.6.4 1.7 1 3.8.3 0 0 .5-1.3 2.5-1.2l3.2-.6s4 1.2 5.7-.9c0 0 6.9 9 6.2 13.4 0 0 .1 12.3 3.6 14 0 0-.3 2.4.9 6.5 0 0 1.6 3.5 1.3 7.3 0 0 .4 1.8.6 3.1 0 0 .4 7-.6 8.6 0 0-2.1 3.8-3.1 4.7-1 .9-.1.2-.1.2s1.9 1.9 5.4-.1c0 0-1.8-3.3.3-3.9 0 0 1.4-.8.7-2 0 0-.4-8 .1-9.2 0-.1 0-.1.1-.1.1-.1.2-.2.2-.3L37.6 26s2.3 4.5 2.4 6.2c0 0 .3 3.9 1.6 5.5 0 0 4.2 8.7 1.1 11 0 0-2 1.8-1.2 2.5l.4.4c.9.1 4 .4 4.1-1.3 0 0-2-1.6.3-4 0 0-2.5-7.4-1.9-11.1 0 0-1.6-7.3-.7-10.8 4.2-.3 9.6-.8 12.8-1.8 0 0 4-.6 6.7-2s6.8-3.4 9.9 1.4c0 0 3.1 3.8 2.9 6.7 0 .7.2 1.4.5 2.1.2 2 .5 4.4.4 5.5-.2 2.2-.8 9.6-5.2 12.2 0 0-2.9 2.1-.4 1.9 2.5-.1 3.3 1.5 4 .3.6-1.3-1.3-2.4 1-4.1 0 0 1.1-.8 1.1-1.4 0-.4 1.2-5.4 2.6-8.6.3.7.5 1.3.5 1.9.2 3.3.7 7.5 0 8.8 0 0-3.5 4-3.4 5.5 0 0 3.6.8 4.9.3 0-.1.1-.1.1-.2 1.2-2.3-2.1-1.4.3-4.1l.7-1.1s1.6-9.6.9-10.1c-.7-.6.6-1.6.6-1.6s-3.7-9.7-1.6-11.8c0 0 9-8.1 4.7-17.4 2.4 1.9 2.3 8.3 1.3 11.3-1.3 3.9.7 10.9.7 10.9.4 3.1 1.1-.6 1.1-.6 3-3.5 5.9-9.5 3-18.7z" transform="matrix(.69 0 0 .69 15.5 15.5)"/></svg>