<svg xmlns="http://www.w3.org/2000/svg" viewBox="0 0 100 46.1"><path d="M90.2 13.4c-1-1.2-2-2.2-3.1-3.1.8-.8 1.5-1.6 1.8-2 .7-1.3.2-5.1-.6-5.7-.5-.4-1.1.2-2.1 1 0-.7-.1-1.4-.5-2-.5-.8-3 2-5 4.6-1.4-.6-2.8-1-4.2-1.2-4.5-.6-25.8-5-45.6-5-9.1 0-14.5 1.2-19.7 5.3-.4.3-.8.7-1.2 1.3-1 1.1-3.2 3.1-5.5 2.8C3 9.2 2.9 8 3.3 7.1c.6-1.2 2.3-1.2 3.8-.6 1.1.4 1.6-1.3-.3-2-2.3-.9-4.7 0-5.5 1.5-1 1.7-.9 4.1.7 5.1 1.9 1.2 4 1 5.8.3-.4 1.4-.7 3-.7 4.7-.6 8.6 4.6 12.5 2.1 15.1-3.4 3.4.8 5 .6 8.1-.2 2.5-.2 3.6.6 3.5 1.5-.3 1.5-.3 2.2 1.8.1.7.4 1.5 1.4 1.5h4.2c0-2-2.8-2.5-4.1-8.8-.7-3.4 1.7-6.4 4.3-8.6.2.1.5.1.7.2-.2 1.3-.5 2.3 1.1 4.3 1.1 1.3 1.2 6.9 1.4 9 .1.8 1.6-.4 1.7.6.3 1.7.6 3.2 1.2 3.2h4.8c0-.9-2.4-3-3.1-5.8-1-3.8-.1-6.2 1.2-8.5L25 30.6c-.2-.1-.1-.5.2-.4l2.8.7c.8.2 1.6.4 2.5.7h.1c1 .3 2.1.6 3.2 1 5.2 1.7 12.6 1.2 21.2-1.9.4 2.6.9 6.4.8 7.4-.3 1.5-1.4 3.7 0 5.3.4.4 1-.1 1.2.2 0 .4.1.7.2 1 .2.8 1.1 1.4 2 1.4H63c-1.2-2.4-2.1-2.4-2.4-4.6-.5-3.2.5-7.5 2.2-10.6 1.5 4.2 3 9.3 2.6 10.2-.5.9.1 3 1.3 2.1.4-.3.6.5.6 1.4 0 .7.7 1.6 1.3 1.6h4.6c-.6-1.4-2-2.4-2.9-6.1-.4-1.8-.7-6.2.2-10.2 5.5 0 7.7-3.4 10.8-3.7 1.9-.2 4.7-.1 6.6-.5 4.9-1 8.4-1.5 9.1-3.4.3-.9 2.2-1 1.9-1v-5.1c-3.5 0-5.5 1-8.7-2.7z" fill="#006347"/></svg>