<svg xmlns="http://www.w3.org/2000/svg" viewBox="0 0 100 58.8"><path d="M87.7 5.8c-.3-.3-.5-.9-.7-1.6 1.3-.6 2.7-1.4 2.6-1.8-.1-.5-2.5-.3-4.1-.2-.8-.7-2-1.3-4-1.9-6-1.7-9.2 3.8-14.1 6.8s-13.1.6-22 .6c-4.7 0-6.8-.2-17.1-.2-13.3 0-15.6 12.6-13.7 21.4 1.1 5.2 2.3 8.3 4.2 9.9-.1 1.6-.4 2.8-.8 3.3-.9.9-1.3 1.1-1.5 3.4-.2 2.3-.9 6.8-1.3 8.1s0 1.7.6 2.3c.2.2.3.6.4 1.1.1.9.8 1.6 1.7 1.6h3.3c0-.8-.7-2.3-1.5-3.4s.2-5.4.9-7.5c.5-1.4 1.3-2.3 2.6-3.1v1c-.2 1.5 2.2 4.3 2.5 6.2.2 1.9-.4 2.4.1 3.4s1.3.6 1.5 1.3c.1.3.2.7.4 1.1.3.6.9 1 1.6 1h3.4c0-1.3-1.1-2.1-1.6-3.2-.4-1.1-2.5-8.1-2.5-9.4s2.4-3.5 4.4-6.1c.5.2 1.1.4 1.7.6 6.4 2.6 13.3-.9 16.1-1.6.4 4.6 2.4 6.3 2.5 8 .1 3.4 0 6.4-.1 9.4-.1 1.5 1.6 2.3 3 2.3h3c.1-1.9-.8-1.9-1.5-4.1-.6-2.3.8-4.1 1.3-7.1.1-.3.2-.7.3-1.1 0 0 .8-2.7 1.6-4.2.2-.3.4-.1.4.1l-1 4.3c0 .2.1.4.1.6 0 3 .4 5.8-.2 7.9-.1.4-.2.8-.2 1.2-.1 1.4 1 2.6 2.4 2.6h4.4c0-1.9-.9-1.9-1.7-4.1-.8-2.3.6-4.1.9-7.1.2-1.6 1.3-4.7 2.3-7.1 8.3-3.7 9.6-11.7 11-14.5 1.5-2.8 2.1-9.4 6.2-7.5s6 1.5 7.1-2.1c.9-4.1-4-9.7-4.9-10.6zm-10.2.4s.9-4.1 2.3-4.9c1.3-.8 2.1 1.5 2.1 1.5-3.3.8-4.4 3.4-4.4 3.4z" fill="#006347"/></svg>