<svg xmlns="http://www.w3.org/2000/svg" viewBox="0 0 100 100" fill="#006347"><path d="M54.7 81.8c-2.3 0-4.2 1.9-4.2 4.2s1.9 4.2 4.2 4.2 4.3-1.8 4.3-4.1-1.9-4.3-4.3-4.3zm9 9c-2.3 0-4.2 1.9-4.2 4.2s1.9 4.2 4.2 4.2S68 97.3 68 95s-1.9-4.2-4.3-4.2zm0-14c-2.3 0-4.2 1.9-4.2 4.2s1.9 4.2 4.2 4.2S68 83.3 68 81s-1.9-4.2-4.3-4.2zm20.5-32.6c-1.8-7.2-6.8-15.3-13.9-22.4S55.1 9.7 47.9 7.9V6.1c0-2.9-2.4-5.3-5.3-5.3s-5.3 2.4-5.3 5.3v2.1c-.6.3-1.2.6-1.7.9l-.1.1C32.2 12 29 15 26 18.1c-3.1 3.1-6 6.3-8.9 9.5l-.1.1c-.3.5-.6 1.1-.9 1.7H14c-2.9 0-5.3 2.4-5.3 5.3S11.1 40 14 40h1.8c1.8 7.2 6.8 15.3 13.9 22.4 7.4 7.4 15.9 12.5 23.4 14.1h.3c.3 0 .6-.1.8-.3.3-.3.5-.6.4-1l-.3-4.2 2.1 2.1c.3.2.6.4.9.4.4 0 .7-.2.9-.5l2.1-2.6 2.2 4.3c.2.3.5.6.9.7s.8 0 1.1-.3c3.3-2.8 6.5-5.8 9.5-8.9 3.1-3.1 6-6.3 8.9-9.5l.1-.1c.3-.5.6-1.1.9-1.7H86c2.9 0 5.3-2.4 5.3-5.3s-2.4-5.4-5.3-5.4h-1.8z"/></svg>