<?xml version="1.0" encoding="utf-8"?>
<!-- Generator: Adobe Illustrator 22.1.0, SVG Export Plug-In . SVG Version: 6.00 Build 0)  -->
<svg version="1.1" id="Слой_1" xmlns="http://www.w3.org/2000/svg" xmlns:xlink="http://www.w3.org/1999/xlink" x="0px" y="0px"
	 viewBox="0 0 100 58.8" style="fill:#006347;enable-background:new 0 0 100 58.8;" xml:space="preserve">
<path class="st0" d="M98.7,15.2c-1.7-0.8-1.3-0.8-4.9-6.6c0,0,0.4-1-0.1-3.1c0-0.1-0.1-0.2-0.1-0.4c1.5-0.6,2-2.2,2.8-3.1
	C97.3,0.8,94-0.2,90,1.8c-0.3-0.3-1.2-1.4-1.2-1.4l0,0c-0.8-0.5-1.7-0.6-2.6-0.1c-1.6,1-4.4,3.5-10.3,3.5s-7.2-2.1-13.8-2.1
	s-11.9,2-20.5,2s-19.5-1-22.8-1.2c-1.3-0.1-2.4-0.1-3.4-0.1l0,0c-6.3,0-9,0.9-10.6,3.9c-2.5,4.6-3.1,12.2-2.1,14.8
	c1,2.7,0,15.9,0,15.9s-2,3.3-2,7.5c0,0,2.6,0.4,3.2-3.4C4.3,38.6,5,18.6,5,18.6h0.8c0.6,4.9,3.4,8.4,0.2,16c-1.3,3,2,15.5,2,17.4
	c0,1.3,0.1,4.2,0.1,6c0.2,1.1,0.9,1.8,1.8,1.8h3.6c-0.6-4.1-2.5-3.2-2.5-5.4s0.5-12.8,1.1-16.8c0.1-0.8,0.5-1.5,1.1-2.1l0,0
	c0,0,0.9-1.1,3.2-2c0.2-0.1,0.3,0.2,0.1,0.3c-0.8,0.5-1.7,1.1-2.3,1.9C14,37,14,38.4,14.6,39.8c1.2,2.7,5.3,10.7,5.9,13.2
	c0.4,1.7,0.9,4,1.1,5.5c0.2,0.8,0.9,1.4,1.7,1.4h4.1c-0.4-4-2.9-2.6-3.7-5.8c-0.7-2.7-2.6-12.5-2-15.4c0.2-0.9,1.3-2.6,2.7-4.4
	c1.3,0.5,2.9,1.2,5,1.9c6.8,2.4,18.3-0.4,24.1-0.9c0.2,0,0.3,0,0.4,0c-0.3,4.9-0.9,12.1-1.6,13.5c-1,2.1-2,3-2,3s-0.2,2.9-0.2,3.5
	c0,0.4,0,2.3,0,3.5c0,0.6,0.5,1.1,1.1,1.1h3.9c0.1-2.4-2.5-3.5-2-4.6s2.1-5.1,2.5-6.8c0.2-0.9,1.5-1.9,2.4-2.5
	c0.1-0.1,0.4-2.4,0.5-3.8c0-0.3,0.5-0.3,0.5,0c0,0.1,0,0.3,0,0.4c0,0.8,0,1.6,0,2.4l0,0l0,0c0.1,2.4,0.1,4.5,0.2,5.5
	c1.4,1.3,1.4,6.1,1.3,8.3c0,0.6,0.5,1.2,1.1,1.2h4.3c-0.2-2.5-2.2-2.8-2.2-4.6c0-8,0.8-8.6,1.9-11.4c0.2-0.6,0.5-1.5,0.9-2.5l0,0
	l2.7-9.5c0.1-0.3,0.5-0.2,0.4,0.1l-0.6,6c4.8-0.4,7.2-3.6,8.1-6c1.1-3,3.4-9.6,4.4-11.1c1.6-2.4,1.6-4.1,4.7-3.1c0,0,0,0,0.1,0
	c1.8,0.7,4.2,1.3,7.1,1.2c0,0,0,1.6,2.1,1.3c2-0.3,2.3-0.3,2.9-0.4c0.6-0.1,0.5-0.9,0.9-1.8C99.5,17.3,100.4,16,98.7,15.2z"/>
</svg>
