<?xml version="1.0" encoding="utf-8"?>
<!-- Generator: Adobe Illustrator 22.1.0, SVG Export Plug-In . SVG Version: 6.00 Build 0)  -->
<svg version="1.1" id="Слой_1" xmlns="http://www.w3.org/2000/svg" xmlns:xlink="http://www.w3.org/1999/xlink" x="0px" y="0px"
	 viewBox="0 0 100 56.9" style="fill:#006347;enable-background:new 0 0 100 56.9;" xml:space="preserve">
<path class="st0" d="M74.1,7.9c-0.6-1.5-2.4-2.1-2.4-2.1S71.5,4.9,71,4.1c0.1-0.1,0.3-0.2,0.4-0.4c0.2-0.5,0.2-1.1,0-1.6
	c-0.7-1.5-1.1-0.6-1.8-0.6c-0.7,0-0.9-1.2-1.6-1c-0.2,0.1-0.4,0.4-0.7,0.4S66.7,0.3,66,0c-0.9-0.3-0.9,1.2-1.2,1.2s-0.6-0.5-1.2-0.5
	c-0.7,0-0.7,1.7-0.7,1.7S62,1.8,61.7,2.5c-0.1,0.2,0,0.7,0.2,1.1c0.5,0.8,1.4,0.9,2.3,0.9c0.3,0,0.6,0,0.8,0
	c-1.9,1.9-3.7,5.4-5.9,10.1c-3.9,8.2-8.7,5.7-15.2,5.7S33.1,10.1,28.4,10.1c-2.5,0-7.6,5.5-4.5,7.9c-1.9,0.9-1.2,5.3,0.1,7
	c2.1,2.7,3.9,2.6,3.9,2.6c1,3.8,5,6.8,5,6.8s4.9,8.8,13.1,10.8c0.8,1.2,2,2.2,2.8,2.8l-0.4,7.1c0,0-1.2,0.1-1.2,1.8H51l2.3,0.2
	l2.8,0.8c0,0,0.1-0.5-0.1-0.9l2.7,0.3c0,0,0.2-1-1-1.1s-5.5-0.9-5.5-0.9l0.3-6.7l2.5-3.2c-1.3,0-2.1-0.1-2.7-0.2
	c-0.2,0-0.1-0.3,0-0.2c1.2,0.1,2.3,0,3.2-0.1c9.2-2.3,12.6-9.6,13.5-15c1.1-6.8-1.1-9.7-0.8-16.6c1.3,0.4,3.3-0.2,3.3-1.6
	c0-1.2-0.4-2.3-0.8-3L74.1,7.9z"/>
</svg>
