<?xml version="1.0" encoding="utf-8"?>
<svg style="fill: #006347" xmlns="http://www.w3.org/2000/svg" xmlns:xlink="http://www.w3.org/1999/xlink" version="1.1" x="0px" y="0px" viewBox="0 0 50 50" enable-background="new 0 0 50 50" xml:space="preserve"><g><path d="M35.4,13.1l-3.7-5.3c0.1,0,1.9,0.3,1.9-1V3.1c0-0.6-0.4-1-1-1H17.4c-0.6,0-1,0.4-1,1v3.7c0,1.3,1.7,1,1.9,1   c-2.4,4-6.1,6.6-6.1,12.9v1.4c1.9,1.6,3,2.4,5.3,0.6c2.7-2.4,5.6-2.4,8.4,0c1.7,1.4,3,1.4,4.7,0c2.6-2.3,5.6-2.1,7.4-0.9   C37.7,21,38.4,17.3,35.4,13.1z"></path><path d="M32.3,24.7c-2.7,2.4-5.6,2.4-8.4,0c-1.7-1.4-3-1.4-4.7,0c-2.6,2.3-5.3,2.1-7.1,1v18.1c0,2.3,1.6,4,3.6,4h18.6   c2,0,3.6-1.9,3.6-4V25.4c-0.3-0.3-0.6-0.4-0.9-0.7C35.3,23.3,34,23.3,32.3,24.7z"></path></g></svg>
