<?xml version="1.0" encoding="utf-8"?>
<svg xmlns="http://www.w3.org/2000/svg" xmlns:xlink="http://www.w3.org/1999/xlink" width="100" height="100" viewBox="0 0 100 100"><g><g transform="translate(50 50) scale(0.69 0.69) rotate(0) translate(-50 -50)" style="fill:#006347"><svg style="fill:#006347" xmlns="http://www.w3.org/2000/svg" xmlns:xlink="http://www.w3.org/1999/xlink" version="1.1" x="0px" y="0px" viewBox="0 0 100 100" enable-background="new 0 0 100 100" xml:space="preserve"><g><path d="M36.47,71.43v0.015C36.47,71.446,36.64,71.236,36.47,71.43z"></path><path d="M5.711,31.676c-0.161-0.135-0.273-0.26-0.331-0.335C5.512,31.521,5.831,31.941,5.711,31.676z"></path><path d="M41.938,86.395c-0.145-0.022-0.236-0.038-0.236-0.038S41.913,86.452,41.938,86.395z"></path><path d="M14.911,12.126c-0.058,0.041-0.095,0.093-0.122,0.154c0.095-0.108,0.176-0.187,0.224-0.229   C14.99,12.07,14.957,12.093,14.911,12.126z"></path><path d="M93.777,44.443c-2.963-9.235-9.71-8.107-9.71-8.107c-1.436-1.255-3.944-2.76-8.306-4.007c0,0-3.758-1.749-17.046,2.552   c-0.052,0.016-0.101,0.034-0.151,0.051c0,0-7.28,0.512-10.48-2.175c-1.138-0.956-4.209-1.635-5.732-1.573   c0,0-14.857-12.32-21.52-14.276l-1.981-5.164l-0.732,3.869l-1.279-0.004c0,0-2.392-2.507-2.051-3.327   c-0.499,0.581-1.376,2.099,0.313,4.254c0,0-1.863,2.835-3.555,3.043c0,0-0.178,1.508-0.199,1.825   c-0.021,0.319-5.741,5.512-5.741,5.512c0.041,0.163-1.18,2.533-0.269,4.085c0.219,0.368,0.327,0.573,0.372,0.677   c0.556,0.463,1.738,1.061,3.77,0.332c0,0,0.462-1.348,2.531-1.213l3.181-0.601c0,0,3.973,1.176,5.709-0.948   c0,0,6.922,9.031,6.212,13.353c0,0,0.052,12.256,3.611,14.035c0,0-0.314,2.377,0.906,6.505c0,0,1.581,3.514,1.279,7.33   c0,0,0.36,1.833,0.598,3.074c0,0,0.395,7.004-0.561,8.595c0,0-2.115,3.805-3.079,4.699c-0.964,0.896-0.12,0.207-0.12,0.207   s1.9,1.881,5.389-0.129c0,0-1.809-3.315,0.256-3.924c0,0,1.382-0.763,0.716-1.979c0,0-0.356-7.985,0.068-9.194   c0.019-0.054,0.039-0.094,0.06-0.121c0.116-0.131,0.187-0.211,0.232-0.266l1.142-10.669c0,0.002,2.349,4.546,2.398,6.227   c0,0,0.306,3.856,1.639,5.462c0,0,4.224,8.748,1.119,11.021c0,0-1.958,1.79-1.2,2.479c0.311,0.287,0.385,0.403,0.369,0.445   c0.877,0.123,3.967,0.434,4.079-1.273c0,0-1.97-1.648,0.259-3.978c0,0-2.548-7.439-1.912-11.075c0,0-1.629-7.34-0.695-10.764   c4.172-0.251,9.561-0.762,12.785-1.789c0,0,4.037-0.641,6.738-2.012c2.698-1.367,6.827-3.389,9.925,1.398   c0,0,3.108,3.772,2.918,6.688c-0.041,0.658,0.157,1.357,0.484,2.077c0.246,2.014,0.476,4.398,0.36,5.533   c-0.219,2.161-0.784,9.557-5.194,12.225c0,0-2.934,2.065-0.447,1.939c2.485-0.126,3.336,1.548,3.977,0.261   c0.646-1.287-1.277-2.37,0.989-4.062c0,0,1.088-0.808,1.13-1.443c0.029-0.434,1.208-5.429,2.616-8.578   c0.283,0.65,0.472,1.295,0.499,1.928c0.155,3.314,0.735,7.531,0.014,8.763c0,0-3.504,4.037-3.4,5.529c0,0,3.595,0.839,4.907,0.331   c0.033-0.051,0.062-0.105,0.091-0.164c1.165-2.321-2.09-1.414,0.273-4.136l0.658-1.129c0,0,1.585-9.564,0.931-10.139   c-0.658-0.575,0.633-1.556,0.633-1.556s-3.683-9.67-1.624-11.827c0,0,9.008-8.113,4.722-17.423c2.432,1.851,2.299,8.267,1.3,11.289   c-1.296,3.912,0.724,10.916,0.724,10.916c0.358,3.06,1.101-0.606,1.101-0.606C93.758,59.64,96.74,53.679,93.777,44.443z"></path></g></svg></g></g></svg>