<?xml version="1.0" encoding="utf-8"?>
<!-- Generator: Adobe Illustrator 22.1.0, SVG Export Plug-In . SVG Version: 6.00 Build 0)  -->
<svg version="1.1" id="Слой_1" xmlns="http://www.w3.org/2000/svg" xmlns:xlink="http://www.w3.org/1999/xlink" x="0px" y="0px"
	 viewBox="0 0 100 51.1" style="fill:#006347;enable-background:new 0 0 100 51.1;" xml:space="preserve">
<g>
	<g transform="translate(50 50) scale(0.69 0.69) rotate(0) translate(-50 -50)">
		<g>
			<path class="st0" d="M36.5,36.7L36.5,36.7C36.5,36.7,36.6,36.5,36.5,36.7z"/>
			<path class="st0" d="M5.7-3.1C5.6-3.2,5.4-3.3,5.4-3.4C5.5-3.2,5.8-2.8,5.7-3.1z"/>
			<path class="st0" d="M41.9,51.7c-0.1,0-0.2,0-0.2,0S41.9,51.7,41.9,51.7z"/>
			<path class="st0" d="M14.9-22.6c-0.1,0-0.1,0.1-0.1,0.2c0.1-0.1,0.2-0.2,0.2-0.2C15-22.7,15-22.7,14.9-22.6z"/>
			<path class="st0" d="M93.8,9.7c-3-9.2-9.7-8.1-9.7-8.1c-1.4-1.3-3.9-2.8-8.3-4c0,0-3.8-1.7-17,2.6c-0.1,0-0.1,0-0.2,0.1
				c0,0-7.3,0.5-10.5-2.2c-1.1-1-4.2-1.6-5.7-1.6c0,0-14.9-12.3-21.5-14.3l-2-5.2l-0.7,3.9l-1.3,0c0,0-2.4-2.5-2.1-3.3
				c-0.5,0.6-1.4,2.1,0.3,4.3c0,0-1.9,2.8-3.6,3c0,0-0.2,1.5-0.2,1.8c0,0.3-5.7,5.5-5.7,5.5c0,0.2-1.2,2.5-0.3,4.1
				c0.2,0.4,0.3,0.6,0.4,0.7C6.3-2.6,7.4-2,9.5-2.7c0,0,0.5-1.3,2.5-1.2l3.2-0.6c0,0,4,1.2,5.7-0.9c0,0,6.9,9,6.2,13.4
				c0,0,0.1,12.3,3.6,14c0,0-0.3,2.4,0.9,6.5c0,0,1.6,3.5,1.3,7.3c0,0,0.4,1.8,0.6,3.1c0,0,0.4,7-0.6,8.6c0,0-2.1,3.8-3.1,4.7
				c-1,0.9-0.1,0.2-0.1,0.2s1.9,1.9,5.4-0.1c0,0-1.8-3.3,0.3-3.9c0,0,1.4-0.8,0.7-2c0,0-0.4-8,0.1-9.2c0-0.1,0-0.1,0.1-0.1
				c0.1-0.1,0.2-0.2,0.2-0.3L37.6,26c0,0,2.3,4.5,2.4,6.2c0,0,0.3,3.9,1.6,5.5c0,0,4.2,8.7,1.1,11c0,0-2,1.8-1.2,2.5
				c0.3,0.3,0.4,0.4,0.4,0.4c0.9,0.1,4,0.4,4.1-1.3c0,0-2-1.6,0.3-4c0,0-2.5-7.4-1.9-11.1c0,0-1.6-7.3-0.7-10.8
				c4.2-0.3,9.6-0.8,12.8-1.8c0,0,4-0.6,6.7-2c2.7-1.4,6.8-3.4,9.9,1.4c0,0,3.1,3.8,2.9,6.7c0,0.7,0.2,1.4,0.5,2.1
				c0.2,2,0.5,4.4,0.4,5.5c-0.2,2.2-0.8,9.6-5.2,12.2c0,0-2.9,2.1-0.4,1.9c2.5-0.1,3.3,1.5,4,0.3c0.6-1.3-1.3-2.4,1-4.1
				c0,0,1.1-0.8,1.1-1.4c0-0.4,1.2-5.4,2.6-8.6c0.3,0.7,0.5,1.3,0.5,1.9c0.2,3.3,0.7,7.5,0,8.8c0,0-3.5,4-3.4,5.5
				c0,0,3.6,0.8,4.9,0.3c0-0.1,0.1-0.1,0.1-0.2c1.2-2.3-2.1-1.4,0.3-4.1l0.7-1.1c0,0,1.6-9.6,0.9-10.1c-0.7-0.6,0.6-1.6,0.6-1.6
				s-3.7-9.7-1.6-11.8c0,0,9-8.1,4.7-17.4c2.4,1.9,2.3,8.3,1.3,11.3c-1.3,3.9,0.7,10.9,0.7,10.9c0.4,3.1,1.1-0.6,1.1-0.6
				C93.8,24.9,96.7,18.9,93.8,9.7z"/>
		</g>
	</g>
</g>
</svg>
