<?xml version="1.0" encoding="utf-8"?>
<!-- Generator: Adobe Illustrator 22.1.0, SVG Export Plug-In . SVG Version: 6.00 Build 0)  -->
<svg version="1.1" id="Слой_1" xmlns="http://www.w3.org/2000/svg" xmlns:xlink="http://www.w3.org/1999/xlink" x="0px" y="0px"
	 viewBox="0 0 100 46.1" style="fill:#006347;enable-background:new 0 0 100 46.1;" xml:space="preserve">
<path class="st0" d="M90.2,13.4c-1-1.2-2-2.2-3.1-3.1c0.8-0.8,1.5-1.6,1.8-2c0.7-1.3,0.2-5.1-0.6-5.7c-0.5-0.4-1.1,0.2-2.1,1
	c0-0.7-0.1-1.4-0.5-2c-0.5-0.8-3,2-5,4.6c-1.4-0.6-2.8-1-4.2-1.2C72,4.4,50.7,0,30.9,0c-9.1,0-14.5,1.2-19.7,5.3
	C10.8,5.6,10.4,6,10,6.6C9,7.7,6.8,9.7,4.5,9.4C3,9.2,2.9,8,3.3,7.1c0.6-1.2,2.3-1.2,3.8-0.6c1.1,0.4,1.6-1.3-0.3-2
	C4.5,3.6,2.1,4.5,1.3,6c-1,1.7-0.9,4.1,0.7,5.1c1.9,1.2,4,1,5.8,0.3c-0.4,1.4-0.7,3-0.7,4.7c-0.6,8.6,4.6,12.5,2.1,15.1
	c-3.4,3.4,0.8,5,0.6,8.1c-0.2,2.5-0.2,3.6,0.6,3.5c1.5-0.3,1.5-0.3,2.2,1.8c0.1,0.7,0.4,1.5,1.4,1.5h4.2c0-2-2.8-2.5-4.1-8.8
	c-0.7-3.4,1.7-6.4,4.3-8.6c0.2,0.1,0.5,0.1,0.7,0.2c-0.2,1.3-0.5,2.3,1.1,4.3c1.1,1.3,1.2,6.9,1.4,9c0.1,0.8,1.6-0.4,1.7,0.6
	c0.3,1.7,0.6,3.2,1.2,3.2h4.8c0-0.9-2.4-3-3.1-5.8c-1-3.8-0.1-6.2,1.2-8.5L25,30.6c-0.2-0.1-0.1-0.5,0.2-0.4l2.8,0.7
	c0.8,0.2,1.6,0.4,2.5,0.7h0.1l0,0c1,0.3,2.1,0.6,3.2,1c5.2,1.7,12.6,1.2,21.2-1.9c0.4,2.6,0.9,6.4,0.8,7.4c-0.3,1.5-1.4,3.7,0,5.3
	c0.4,0.4,1-0.1,1.2,0.2c0,0.4,0.1,0.7,0.2,1c0.2,0.8,1.1,1.4,2,1.4H63c-1.2-2.4-2.1-2.4-2.4-4.6c-0.5-3.2,0.5-7.5,2.2-10.6
	c1.5,4.2,3,9.3,2.6,10.2c-0.5,0.9,0.1,3,1.3,2.1c0.4-0.3,0.6,0.5,0.6,1.4c0,0.7,0.7,1.6,1.3,1.6h4.6c-0.6-1.4-2-2.4-2.9-6.1
	c-0.4-1.8-0.7-6.2,0.2-10.2c5.5,0,7.7-3.4,10.8-3.7c1.9-0.2,4.7-0.1,6.6-0.5c4.9-1,8.4-1.5,9.1-3.4c0.3-0.9,2.2-1,1.9-1v-5.1
	C95.4,16.1,93.4,17.1,90.2,13.4z"/>
</svg>
