<?xml version="1.0" encoding="utf-8"?>
<!-- Generator: Adobe Illustrator 22.1.0, SVG Export Plug-In . SVG Version: 6.00 Build 0)  -->
<svg version="1.1" id="Слой_1" xmlns="http://www.w3.org/2000/svg" xmlns:xlink="http://www.w3.org/1999/xlink" x="0px" y="0px"
	 viewBox="0 0 100 58.8" style="fill:#006347;enable-background:new 0 0 100 58.8;" xml:space="preserve">
<path class="st0" d="M87.7,5.8c-0.3-0.3-0.5-0.9-0.7-1.6c1.3-0.6,2.7-1.4,2.6-1.8c-0.1-0.5-2.5-0.3-4.1-0.2c-0.8-0.7-2-1.3-4-1.9
	c-6-1.7-9.2,3.8-14.1,6.8s-13.1,0.6-22,0.6c-4.7,0-6.8-0.2-17.1-0.2C15,7.5,12.7,20.1,14.6,28.9c1.1,5.2,2.3,8.3,4.2,9.9
	c-0.1,1.6-0.4,2.8-0.8,3.3c-0.9,0.9-1.3,1.1-1.5,3.4c-0.2,2.3-0.9,6.8-1.3,8.1s0,1.7,0.6,2.3c0.2,0.2,0.3,0.6,0.4,1.1
	c0.1,0.9,0.8,1.6,1.7,1.6h3.3c0-0.8-0.7-2.3-1.5-3.4s0.2-5.4,0.9-7.5c0.5-1.4,1.3-2.3,2.6-3.1c0,0.4,0,0.7,0,1
	c-0.2,1.5,2.2,4.3,2.5,6.2c0.2,1.9-0.4,2.4,0.1,3.4s1.3,0.6,1.5,1.3c0.1,0.3,0.2,0.7,0.4,1.1c0.3,0.6,0.9,1,1.6,1h3.4
	c0-1.3-1.1-2.1-1.6-3.2c-0.4-1.1-2.5-8.1-2.5-9.4s2.4-3.5,4.4-6.1c0.5,0.2,1.1,0.4,1.7,0.6c6.4,2.6,13.3-0.9,16.1-1.6
	c0.4,4.6,2.4,6.3,2.5,8c0.1,3.4,0,6.4-0.1,9.4c-0.1,1.5,1.6,2.3,3,2.3h3c0.1-1.9-0.8-1.9-1.5-4.1c-0.6-2.3,0.8-4.1,1.3-7.1
	c0.1-0.3,0.2-0.7,0.3-1.1l0,0c0,0,0.8-2.7,1.6-4.2c0.2-0.3,0.4-0.1,0.4,0.1l-1,4.3c0,0.2,0.1,0.4,0.1,0.6c0,3,0.4,5.8-0.2,7.9
	c-0.1,0.4-0.2,0.8-0.2,1.2c-0.1,1.4,1,2.6,2.4,2.6h4.4c0-1.9-0.9-1.9-1.7-4.1c-0.8-2.3,0.6-4.1,0.9-7.1c0.2-1.6,1.3-4.7,2.3-7.1
	c8.3-3.7,9.6-11.7,11-14.5c1.5-2.8,2.1-9.4,6.2-7.5s6,1.5,7.1-2.1C93.5,12.3,88.6,6.7,87.7,5.8z M77.5,6.2c0,0,0.9-4.1,2.3-4.9
	c1.3-0.8,2.1,1.5,2.1,1.5C78.6,3.6,77.5,6.2,77.5,6.2z"/>
</svg>
