<?xml version="1.0" encoding="utf-8"?>
<!-- Generator: Adobe Illustrator 22.1.0, SVG Export Plug-In . SVG Version: 6.00 Build 0)  -->
<svg  version="1.1" id="Layer_1" xmlns="http://www.w3.org/2000/svg" xmlns:xlink="http://www.w3.org/1999/xlink" x="0px" y="0px"
	 viewBox="0 0 100 100" style="fill: #006347;enable-background:new 0 0 100 100;" xml:space="preserve">
<g>
	<path d="M54.7,81.8c-2.3,0-4.2,1.9-4.2,4.2s1.9,4.2,4.2,4.2s4.3-1.8,4.3-4.1S57.1,81.8,54.7,81.8z"/>
	<path d="M63.7,90.8c-2.3,0-4.2,1.9-4.2,4.2s1.9,4.2,4.2,4.2S68,97.3,68,95S66.1,90.8,63.7,90.8z"/>
	<path d="M63.7,76.8c-2.3,0-4.2,1.9-4.2,4.2s1.9,4.2,4.2,4.2S68,83.3,68,81S66.1,76.8,63.7,76.8z"/>
	<path d="M84.2,44.2c-1.8-7.2-6.8-15.3-13.9-22.4S55.1,9.7,47.9,7.9V6.1c0-2.9-2.4-5.3-5.3-5.3c-2.9,0-5.3,2.4-5.3,5.3v2.1
		c-0.6,0.3-1.2,0.6-1.7,0.9l-0.1,0.1C32.2,12,29,15,26,18.1c-3.1,3.1-6,6.3-8.9,9.5L17,27.7c-0.3,0.5-0.6,1.1-0.9,1.7H14
		c-2.9,0-5.3,2.4-5.3,5.3S11.1,40,14,40h1.8c1.8,7.2,6.8,15.3,13.9,22.4c7.4,7.4,15.9,12.5,23.4,14.1c0.1,0,0.2,0,0.3,0
		c0.3,0,0.6-0.1,0.8-0.3c0.3-0.3,0.5-0.6,0.4-1L54.3,71l2.1,2.1c0.3,0.2,0.6,0.4,0.9,0.4c0.4,0,0.7-0.2,0.9-0.5l2.1-2.6l2.2,4.3
		c0.2,0.3,0.5,0.6,0.9,0.7s0.8,0,1.1-0.3c3.3-2.8,6.5-5.8,9.5-8.9c3.1-3.1,6-6.3,8.9-9.5l0.1-0.1c0.3-0.5,0.6-1.1,0.9-1.7H86
		c2.9,0,5.3-2.4,5.3-5.3c0-2.9-2.4-5.4-5.3-5.4C86,44.2,84.2,44.2,84.2,44.2z"/>
</g>
</svg>
