<?xml version="1.0" encoding="utf-8"?>
<svg style="fill: #006347;" xmlns="http://www.w3.org/2000/svg" data-name="Layer 1" viewBox="0 0 128 128" x="0px" y="0px"><title>Artboard 2</title><path d="M11.43,75.11a33.72,33.72,0,0,0,.82,5.39c.27,1.34.64,3,1.05,4.57a2.25,2.25,0,0,0-1,.43c-1.48,1.19-.93,2.82,1.9,8.74.68,1.43,1.56,3.17,2.43,4.81a2.31,2.31,0,0,0-2.43,0,2.1,2.1,0,0,0-1,1.89c0,.64.08,1.7,5.54,7.57.49.52,1.2,1.27,2,2.09A7.45,7.45,0,0,1,19,110a3.35,3.35,0,0,0-.72-.29,2.06,2.06,0,0,0-2.39,1c-.91,1.76.53,3.13,6.19,8.12,1.45,1.28,6.35,5.54,8.38,6.59a8,8,0,0,0,9.77-2l1.26,3A2,2,0,0,0,45.22,125l-1.26-3c.21,0,.42,0,.62,0a8,8,0,0,0,7.64-5.61c.68-2.18,1.1-8.66,1.21-10.59.44-7.53.47-9.52-1.41-10.12a2.06,2.06,0,0,0-2.42,1,3.35,3.35,0,0,0-.3.71A7.48,7.48,0,0,1,48.49,99c0-1.36-.06-2.54-.09-3.19C48,86.9,47.17,86.63,46,86.27A2.2,2.2,0,0,0,43.22,88c-.54-1.77-1.17-3.62-1.7-5.11-2.22-6.17-3-7.72-4.87-7.5a2.28,2.28,0,0,0-1,.41c-.86-1.44-1.75-2.83-2.51-4a33.75,33.75,0,0,0-3.25-4.38l-10.44-25a2,2,0,1,0-3.69,1.54l8.87,21.28c-.27-.32-.55-.64-.82-.95-2.28-2.54-4.12-3.95-5.71-4.32L9,38.06A2,2,0,1,0,5.29,39.6l9.12,21.88c-.85,1.4-1.16,3.69-1,7.11,0,.4.06.81.09,1.22L4.68,48.52A2,2,0,1,0,1,50.06Z"></path><path d="M126.24,44.37a2,2,0,0,0-2.53,1.27l-7.27,21.88c0-.42,0-.84,0-1.25-.05-3.41-.52-5.68-1.47-7l7.46-22.47a2,2,0,1,0-3.8-1.26L111.18,58c-1.56.5-3.3,2-5.39,4.77-.25.32-.49.65-.73,1l7.27-21.88a2,2,0,1,0-3.8-1.26L100,66.35A33.72,33.72,0,0,0,97.06,71c-.67,1.19-1.45,2.65-2.21,4.14a2.27,2.27,0,0,0-1-.33c-1.9-.09-2.55,1.52-4.3,7.84-.42,1.53-.91,3.42-1.32,5.23a2.2,2.2,0,0,0-2.89-1.48c-1.14.45-2,.78-1.69,9.72,0,.65.07,1.83.15,3.19a7.47,7.47,0,0,1-.93-1.62,2.28,2.28,0,0,0-1.79-1.6l-1.19-.15-.72.91c-.52.66-.93,1.17.22,9.74.25,1.89,1.15,8.2,2,10.29a7.91,7.91,0,0,0,8.65,5l-1.1,3.31a2,2,0,1,0,3.8,1.26L93.8,123a8,8,0,0,0,9.89,1.21c1.94-1.2,6.51-5.81,7.87-7.2,5.27-5.4,6.61-6.88,5.57-8.56A2.15,2.15,0,0,0,114,108a7.47,7.47,0,0,1-1.71.74c.74-.87,1.39-1.67,1.84-2.23,5-6.26,5-7.33,5-8a2.1,2.1,0,0,0-1.1-1.81,2.31,2.31,0,0,0-2.42.2c.75-1.69,1.49-3.49,2.07-5,2.38-6.11,2.81-7.78,1.24-8.85a2.26,2.26,0,0,0-1-.35c.29-1.65.54-3.29.71-4.64a33.7,33.7,0,0,0,.42-5.44l8.55-25.75A2,2,0,0,0,126.24,44.37Z"></path><path d="M52.23,90.92a8,8,0,0,0,5.43,2.83q.36,0,.71,0A7.92,7.92,0,0,0,62,92.9V126a2,2,0,0,0,4,0V92.9a7.92,7.92,0,0,0,3.63.88q.35,0,.71,0a8,8,0,0,0,5.43-2.83c1.44-1.72,4.28-7.43,5.12-9.14,3.79-7.77,3.57-8.39,3.28-9.17l-.43-1.12-1.14-.2a2.28,2.28,0,0,0-2.2,1A7.47,7.47,0,0,1,79,73.48c.43-1.06.79-2,1-2.7,2.79-7.52,2.42-8.53,2.2-9.12a2.09,2.09,0,0,0-1.61-1.37,2.3,2.3,0,0,0-2.24.95c.18-1.85.32-3.79.4-5.37.33-6.55.22-8.27-1.61-8.79a2.25,2.25,0,0,0-1.08,0c-.24-1.66-.53-3.29-.79-4.63A33.69,33.69,0,0,0,74,37.13V10a2,2,0,0,0-4,0V33.06c-.13-.4-.26-.8-.39-1.19-1.13-3.22-2.29-5.23-3.61-6.19V2a2,2,0,0,0-4,0V25.68c-1.32,1-2.49,3-3.62,6.22-.13.38-.26.77-.38,1.16V10a2,2,0,0,0-4,0V37.13a33.69,33.69,0,0,0-1.32,5.29c-.26,1.34-.54,3-.79,4.63a2.25,2.25,0,0,0-1.08,0c-1.82.53-1.94,2.25-1.61,8.79.08,1.59.21,3.53.4,5.37a2.3,2.3,0,0,0-2.24-.95,2.09,2.09,0,0,0-1.61,1.37c-.22.6-.58,1.6,2.2,9.13.25.67.61,1.64,1,2.7a7.47,7.47,0,0,1-1.39-1.24,2.28,2.28,0,0,0-2.2-1l-1.17.24-.39,1.08c-.29.79-.51,1.41,3.28,9.17C47.95,83.49,50.79,89.2,52.23,90.92Z"></path></svg>